<svg width="161" height="49" viewBox="0 0 161 49" fill="none" xmlns="http://www.w3.org/2000/svg">
<g clip-path="url(#clip0_938_2447)">
<path d="M7.08693 41.339C8.58508 43.0369 10.4234 44.5757 12.68 45.796C12.6925 45.8023 12.7081 45.8116 12.7206 45.8179C14.6744 46.8697 16.9372 47.6874 19.5652 48.1712C20.5359 48.3491 21.5315 48.4365 22.5303 48.4459C22.5958 48.4459 22.6614 48.4459 22.7238 48.4459H25.1926C26.9155 48.3616 28.5822 48.1025 30.1615 47.6937V34.5818C29.8993 34.588 29.6278 34.5943 29.3625 34.5943C23.4417 34.5943 18.1295 32.6904 14.5027 29.6754C12.0527 27.7902 10.2486 25.4494 9.36536 22.8401H0.535676C0.535676 22.8401 0.348408 33.7016 7.08381 41.3359L7.08693 41.339Z" fill="black"/>
<path d="M32.6513 4.95581H15.6973L21.2997 46.495C21.3652 46.9725 21.8178 47.3314 22.3546 47.3314H43.8905L49.6053 4.95581H32.6513Z" fill="white" stroke="black" stroke-width="2.33773" stroke-miterlimit="10"/>
<path d="M23.6035 34.1136C23.6035 34.1136 33.9688 37.0444 41.7435 18.6422C42.1181 17.7527 43.869 18.4081 43.7286 19.2633L39.6805 44.8972C39.6805 44.8972 30.8789 45.4621 24.7864 44.8972" fill="black"/>
<path d="M10.2576 30.2651H24.2715V25.0372H10.2576V30.2651Z" fill="black"/>
<path d="M4.02146 11.3574L4.01522 11.3949C0.516431 15.9486 0.535158 22.8463 0.535158 22.8463L9.68632 23.6921C9.36796 22.8369 9.1963 21.9724 9.08082 21.1141C8.81864 19.9593 8.87482 18.8076 9.24 17.737L10.1763 17.5248C9.81741 18.3394 9.67071 19.2227 9.72689 20.1184L27.0305 22.478L28.5504 14.7033L4.02146 11.3574Z" fill="black"/>
<path d="M16.6816 6.03589C16.6816 6.03589 23.8072 8.17386 32.6494 8.17386C41.4915 8.17386 48.7419 6.03589 48.7419 6.03589H16.6816Z" fill="black"/>
<path d="M14.2969 3.84794C14.2969 3.84794 22.4524 0.611328 32.5742 0.611328C42.6961 0.611328 50.9952 3.84794 50.9952 3.84794H14.2969Z" fill="black"/>
<path d="M157.088 7.89574V13.0331H141.288V15.3709H136.029V2.80518H141.288V7.89574H157.088Z" fill="black"/>
<path d="M61.9031 4.66047L61.8711 4.61572H61.8935C61.8935 4.61572 61.8999 4.64449 61.9031 4.66047Z" fill="#231815"/>
<path d="M124.307 29.4756C124.26 29.3539 124.22 29.2322 124.179 29.1074C123.895 28.2334 123.677 27.3751 123.633 26.5293C123.795 27.5343 124.017 28.5268 124.307 29.4756Z" fill="black"/>
<path d="M91.7072 7.89574V2.80518H86.4512V15.3709H91.7072V13.0331H107.509V7.89574H91.7072Z" fill="black"/>
<path d="M68.4219 16.9221V24.0071H77.7665C77.882 23.5202 77.9445 23.0146 77.9445 22.4933C77.9445 22.1063 77.9101 21.7224 77.8446 21.351H78.5343C78.5937 21.7224 78.6217 22.1032 78.6217 22.4933C78.6217 23.67 78.344 24.7811 77.8508 25.7705C77.161 27.5652 76.156 29.3661 74.9045 30.6083C72.3795 33.3174 68.6872 35.0309 64.5673 35.0309C64.3831 35.0309 64.1959 35.0278 64.0117 35.0216V46.8101C65.1104 47.1784 66.2683 47.4093 67.4668 47.4843H69.1866C69.2303 47.4843 69.2771 47.4843 69.3208 47.4843C70.0168 47.4749 70.7065 47.3969 71.3838 47.2377C73.2128 46.8038 74.7859 46.0673 76.1436 45.1216C76.1529 45.1153 76.1623 45.1091 76.1716 45.1028C77.7416 44.0042 79.0212 42.6215 80.0637 41.0953C84.3927 34.7532 84.6112 25.3991 84.6206 24.0071V16.9221H68.4219Z" fill="black"/>
<path d="M69.8242 5.06511V2.76172H64.5651V5.83603C64.5182 6.42281 64.331 7.37475 63.7036 8.50148C64.3091 8.24867 64.9365 8.07389 65.5763 7.98337L66.1069 8.63881C65.002 8.7106 63.9065 9.05704 62.9234 9.68127C62.8859 9.72809 62.8516 9.7749 62.8141 9.82172C62.1493 10.4616 61.4908 11.1888 60.8665 11.9815C57.9483 15.6957 56.8652 19.491 58.4508 20.4585C60.0363 21.4261 63.688 19.2007 66.6063 15.4897C66.7467 15.3118 66.8778 15.137 67.0089 14.9591C67.5301 14.313 68.017 13.6576 68.4571 13.0334H84.6183V5.06511H69.8242ZM61.9059 16.4791C61.085 17.7837 60.0425 18.642 59.5775 18.3955C59.1124 18.1489 59.3996 16.888 60.2173 15.5833C61.0382 14.2787 62.0806 13.4204 62.5457 13.667C63.0107 13.9135 62.7236 15.1745 61.9059 16.4791Z" fill="black"/>
<path d="M115.205 24.3881H118.099L118.236 24.1197L119.803 21.0953L119.987 20.7364L121.735 17.3687L121.994 16.8662L125.355 10.4991L126.092 8.94162L131.242 13.9947L134.584 11.142L127.49 4.0508C127.424 4.60012 127.306 5.13696 127.128 5.65194L126.304 5.82361C126.619 5.09326 126.807 4.30049 126.85 3.48588C126.844 3.45155 126.838 3.41409 126.825 3.36728L126.794 3.32358H126.816C126.591 2.29361 125.602 -0.883707 122.321 1.16376C120.948 2.01895 119.984 3.4453 119.25 4.85293C119.244 4.86542 116.248 10.5989 116.248 10.5989L109.041 24.3881H115.205ZM120.87 4.77178C121.597 3.51085 122.521 2.68375 122.936 2.92095C123.348 3.15816 123.095 4.3754 122.368 5.63322C121.641 6.89415 120.717 7.72125 120.302 7.48405C119.887 7.24684 120.143 6.0296 120.87 4.77178Z" fill="black"/>
<path d="M160.693 39.4445C160.537 38.6236 160.324 37.8277 160.062 37.0631C158.523 33.5736 155.518 30.7553 151.726 29.2197C151.738 28.8014 151.744 28.3894 151.744 27.9774V16.8693H144.354V21.0454C144.354 26.5885 143.149 33.3115 138.517 36.0362C138.511 36.0362 138.505 36.0424 138.498 36.0456C137.612 36.5137 135.065 37.6654 131.947 37.2254C127.783 36.417 125.489 33.2959 124.322 29.5224C124.322 29.5162 124.316 29.5099 124.316 29.5037C124.316 29.4974 124.31 29.4881 124.306 29.4787C124.26 29.357 124.219 29.2353 124.179 29.1104C124.035 28.6735 123.91 28.2396 123.813 27.8089C123.767 27.5935 123.726 27.3813 123.695 27.1659C123.664 26.9537 123.642 26.7415 123.632 26.5292V26.5261C123.632 26.5168 123.629 26.5074 123.626 26.498C123.501 25.7115 123.411 24.9156 123.351 24.1228H131.978V26.498H124.275C124.294 26.7914 124.338 27.0848 124.4 27.3813C124.481 27.7777 124.597 28.1803 124.725 28.5892C124.756 28.6922 124.79 28.7952 124.825 28.8982C124.859 29.0043 124.896 29.1073 124.934 29.2134C124.974 29.3164 125.015 29.4194 125.059 29.5193H133.573V16.8693H122.762L122.493 17.3718L120.524 21.0985L118.929 24.1228L118.788 24.3913L118.417 25.0904H115.864V28.4831C115.864 30.6679 116.014 32.9681 116.41 35.1966C116.625 35.465 116.863 35.7178 117.122 35.9551C117.2 36.0268 117.281 36.0986 117.362 36.1642C117.443 36.2328 117.527 36.2984 117.612 36.3608C118.585 37.0974 119.709 37.5344 120.858 37.6779L120.293 38.299C118.982 38.0306 117.724 37.4189 116.666 36.4513C116.557 36.3514 116.451 36.2484 116.351 36.1423C113.448 35.8209 110.343 34.6785 107.487 32.6966C105.552 31.3545 103.938 29.7752 102.686 28.0836C102.686 28.0461 102.686 28.0118 102.686 27.9743V16.8662H95.2956V21.0423C95.2956 21.1203 95.2956 21.1983 95.2956 21.2764C94.303 20.5304 93.1669 19.7595 91.8623 18.9792L88.6756 26.2265C88.6756 26.2265 90.6482 26.7696 93.4666 29.744C94.3093 30.4369 94.9741 31.2827 95.4423 32.2159L94.9897 32.9244C94.6807 32.166 94.2281 31.4606 93.6538 30.8458C92.3742 33.9419 90.2081 36.3889 86.6719 37.0724L87.0433 47.3534C94.9304 48.2648 99.0253 44.2947 101.013 38.9357C101.11 38.4832 101.163 38.015 101.163 37.5312C101.163 37.1348 101.129 36.7447 101.063 36.367H101.753C101.812 36.7447 101.841 37.1348 101.841 37.5312C101.841 38.1118 101.772 38.6736 101.65 39.2166C105.942 43.0026 113.938 47.6843 127.499 48.1618H127.509C129.338 48.3303 135.221 48.708 141.211 47.213C141.201 47.213 141.192 47.213 141.182 47.2099C140.802 47.1537 140.43 47.0788 140.068 46.9851C139.525 46.8447 139.001 46.6668 138.505 46.4514C138.008 46.2361 137.537 45.9864 137.097 45.7086L137.184 44.8721C137.328 44.9783 137.478 45.0812 137.631 45.1811C137.936 45.3778 138.261 45.5588 138.598 45.7211C138.767 45.8022 138.941 45.8771 139.116 45.9489C139.822 46.2361 140.58 46.4421 141.382 46.5544C141.504 46.5731 141.623 46.5888 141.744 46.6012C141.972 46.6262 142.203 46.6418 142.428 46.6481C142.656 46.6574 142.88 46.6574 143.105 46.6481C146.685 45.2654 148.873 42.2878 150.146 38.7235C150.031 38.1742 149.847 37.6311 149.588 37.1036C149.5 36.9257 149.407 36.7541 149.307 36.5855C149.207 36.4201 149.098 36.2578 148.985 36.1017L149.603 35.799C149.822 36.1142 150.025 36.4482 150.196 36.804C150.259 36.932 150.318 37.0599 150.371 37.1879C150.424 37.3159 150.477 37.4438 150.524 37.5749C150.524 37.5718 150.524 37.5687 150.524 37.5656C150.53 37.578 150.533 37.5937 150.54 37.6061C150.936 38.7297 151.195 39.9158 151.304 41.1393C151.345 41.5606 151.364 41.9913 151.364 42.4252C151.364 44.198 151.042 45.9052 150.458 47.4908H160.1C160.671 45.9489 160.989 44.2947 161.005 42.5719C160.999 41.4982 160.889 40.4557 160.696 39.4507L160.693 39.4445Z" fill="black"/>
</g>
<defs>
<clipPath id="clip0_938_2447">
<rect width="160.467" height="48.0093" fill="white" transform="translate(0.535156 0.489502)"/>
</clipPath>
</defs>
</svg>
